HIERARCHY
ROOT hip
{
  OFFSET 0 0 0
  CHANNELS 6 Xposition Yposition Zposition Zrotation Yrotation Xrotation
  JOINT abdomen
  {
    OFFSET 0 20.6881 -0.73152
    CHANNELS 3 Zrotation Xrotation Yrotation
    JOINT chest
    {
      OFFSET 0 11.7043 -0.48768
      CHANNELS 3 Zrotation Xrotation Yrotation
      JOINT neck
      {
        OFFSET 0 22.1894 -2.19456
        CHANNELS 3 Zrotation Xrotation Yrotation
        JOINT head
        {
          OFFSET -0.24384 7.07133 1.2192
          CHANNELS 3 Zrotation Xrotation Yrotation
          JOINT leftEye
          {
            OFFSET 4.14528 8.04674 8.04672
            CHANNELS 3 Zrotation Xrotation Yrotation
            End Site
            {
              OFFSET 1 0 0
            }
          }
          JOINT rightEye
          {
            OFFSET -3.6576 8.04674 8.04672
            CHANNELS 3 Zrotation Xrotation Yrotation
            End Site
            {
              OFFSET 1 0 0
            }
          }
        }
      }
      JOINT rCollar
      {
        OFFSET -2.68224 19.2634 -4.8768
        CHANNELS 3 Zrotation Xrotation Yrotation
        JOINT rShldr
        {
          OFFSET -8.77824 -1.95073 1.46304
          CHANNELS 3 Zrotation Xrotation Yrotation
          JOINT rForeArm
          {
            OFFSET -28.1742 -1.7115 0.48768
            CHANNELS 3 Zrotation Xrotation Yrotation
            JOINT rHand
            {
              OFFSET -22.5879 0.773209 7.07136
              CHANNELS 3 Zrotation Xrotation Yrotation
              JOINT rThumb1
              {
                OFFSET -1.2192 -0.487915 3.41376
                CHANNELS 3 Zrotation Xrotation Yrotation
                JOINT rThumb2
                {
                  OFFSET -3.37035 -0.52449 3.41376
                  CHANNELS 3 Zrotation Xrotation Yrotation
                  End Site
                  {
                    OFFSET -1.78271 -1.18214 1.43049
                  }
                }
              }
              JOINT rIndex1
              {
                OFFSET -7.75947 0.938293 5.60832
                CHANNELS 3 Zrotation Xrotation Yrotation
                JOINT rIndex2
                {
                  OFFSET -2.54057 -0.884171 1.56538
                  CHANNELS 3 Zrotation Xrotation Yrotation
                  End Site
                  {
                    OFFSET -1.62519 -0.234802 1.16502
                  }
                }
              }
              JOINT rMid1
              {
                OFFSET -8.24714 1.18213 3.41376
                CHANNELS 3 Zrotation Xrotation Yrotation
                JOINT rMid2
                {
                  OFFSET -3.10165 -0.590103 1.0647
                  CHANNELS 3 Zrotation Xrotation Yrotation
                  End Site
                  {
                    OFFSET -2.48547 -0.328903 0.83742
                  }
                }
              }
              JOINT rRing1
              {
                OFFSET -8.82822 0.546677 1.51678
                CHANNELS 3 Zrotation Xrotation Yrotation
                JOINT rRing2
                {
                  OFFSET -2.60934 -0.819778 -0.0198488
                  CHANNELS 3 Zrotation Xrotation Yrotation
                  End Site
                  {
                    OFFSET -2.33842 -0.294052 0.168128
                  }
                }
              }
              JOINT rPinky1
              {
                OFFSET -8.27202 -0.0477905 -0.4584
                CHANNELS 3 Zrotation Xrotation Yrotation
                JOINT rPinky2
                {
                  OFFSET -1.82734 -0.647385 -0.700984
                  CHANNELS 3 Zrotation Xrotation Yrotation
                  End Site
                  {
                    OFFSET -1.69225 -0.51767 -0.607171
                  }
                }
              }
            }
          }
        }
      }
      JOINT lCollar
      {
        OFFSET 2.68224 19.2634 -4.8768
        CHANNELS 3 Zrotation Xrotation Yrotation
        JOINT lShldr
        {
          OFFSET 8.77824 -1.95073 1.46304
          CHANNELS 3 Zrotation Xrotation Yrotation
          JOINT lForeArm
          {
            OFFSET 28.1742 -1.7115 0.48768
            CHANNELS 3 Zrotation Xrotation Yrotation
            JOINT lHand
            {
              OFFSET 22.5879 0.773209 7.07136
              CHANNELS 3 Zrotation Xrotation Yrotation
              JOINT lThumb1
              {
                OFFSET 1.2192 -0.487915 3.41376
                CHANNELS 3 Zrotation Xrotation Yrotation
                JOINT lThumb2
                {
                  OFFSET 3.37035 -0.52449 3.41376
                  CHANNELS 3 Zrotation Xrotation Yrotation
                  End Site
                  {
                    OFFSET 1.78271 -1.18214 1.43049
                  }
                }
              }
              JOINT lIndex1
              {
                OFFSET 7.75947 0.938293 5.60832
                CHANNELS 3 Zrotation Xrotation Yrotation
                JOINT lIndex2
                {
                  OFFSET 2.54057 -0.884171 1.56538
                  CHANNELS 3 Zrotation Xrotation Yrotation
                  End Site
                  {
                    OFFSET 1.62519 -0.234802 1.16502
                  }
                }
              }
              JOINT lMid1
              {
                OFFSET 8.24714 1.18213 3.41376
                CHANNELS 3 Zrotation Xrotation Yrotation
                JOINT lMid2
                {
                  OFFSET 3.10165 -0.590103 1.0647
                  CHANNELS 3 Zrotation Xrotation Yrotation
                  End Site
                  {
                    OFFSET 2.48547 -0.328903 0.83742
                  }
                }
              }
              JOINT lRing1
              {
                OFFSET 8.82822 0.546677 1.51678
                CHANNELS 3 Zrotation Xrotation Yrotation
                JOINT lRing2
                {
                  OFFSET 2.60934 -0.819778 -0.0198488
                  CHANNELS 3 Zrotation Xrotation Yrotation
                  End Site
                  {
                    OFFSET 2.33842 -0.294052 0.168128
                  }
                }
              }
              JOINT lPinky1
              {
                OFFSET 8.27202 -0.0477905 -0.4584
                CHANNELS 3 Zrotation Xrotation Yrotation
                JOINT lPinky2
                {
                  OFFSET 1.82734 -0.647385 -0.700984
                  CHANNELS 3 Zrotation Xrotation Yrotation
                  End Site
                  {
                    OFFSET 1.69225 -0.51767 -0.607171
                  }
                }
              }
            }
          }
        }
      }
    }
  }
  JOINT rButtock
  {
    OFFSET -8.77824 4.35084 1.2192
    CHANNELS 3 Zrotation Xrotation Yrotation
    JOINT rThigh
    {
      OFFSET 0 -1.70687 -2.19456
      CHANNELS 3 Zrotation Xrotation Yrotation
      JOINT rShin
      {
        OFFSET 0 -36.8199 0.73152
        CHANNELS 3 Zrotation Xrotation Yrotation
        JOINT rFoot
        {
          OFFSET 0.73152 -45.1104 -5.12064
          CHANNELS 3 Zrotation Xrotation Yrotation
          End Site
          {
            OFFSET -1.1221 -3.69964 12.103
          }
        }
      }
    }
  }
  JOINT lButtock
  {
    OFFSET 8.77824 4.35084 1.2192
    CHANNELS 3 Zrotation Xrotation Yrotation
    JOINT lThigh
    {
      OFFSET 0 -1.70687 -2.19456
      CHANNELS 3 Zrotation Xrotation Yrotation
      JOINT lShin
      {
        OFFSET 0 -36.8199 0.73152
        CHANNELS 3 Zrotation Xrotation Yrotation
        JOINT lFoot
        {
          OFFSET -0.73152 -45.1104 -5.12064
          CHANNELS 3 Zrotation Xrotation Yrotation
          End Site
          {
            OFFSET 1.1221 -3.69964 12.103
          }
        }
      }
    }
  }
}
MOTION
Frames:	5
Frame Time:	0.00833333
-201.637 84.0179 86.443 0.0 0.0 0.0 -1.65551 -0.00357567 -0.0452723 -0.457099 0.000154961 -0.0791638 1.30223e-14 0.0 -7.45443e-17 3.92631e-14 3.18055e-15 -1.27346e-16 -0.0 0.0 0.0 -0.0 0.0 0.0 6.75739e-15 -3.30014e-17 1.49089e-16 1.38775e-13 -6.33626e-16 7.95139e-16 2.36941e-12 -7.33118e-13 -4.45278e-14 2.71873e-11 5.98938e-13 -1.33583e-13 6.4116e-11 -2.93515e-13 -3.72125e-13 1.10713e-10 -5.02528e-13 -6.48038e-13 6.41192e-11 -2.96587e-13 -3.78486e-13 7.73091 5.47488 0.417314 6.41151e-11 -2.93704e-13 -3.75305e-13 2.90554 0.965183 0.102902 6.41182e-11 -2.93903e-13 -3.72125e-13 10.2786 0.731801 0.0259123 6.41053e-11 -2.88635e-13 -3.62583e-13 2.22167 -0.733487 -0.20892 6.56161e-15 -3.06719e-17 -1.98785e-16 1.36025e-13 -7.3923e-16 -1.39149e-15 2.37965e-12 6.84416e-13 -1.90833e-14 2.71689e-11 -8.32088e-13 -1.39944e-13 6.41022e-11 -3.2036e-13 -3.72125e-13 1.10716e-10 -5.53417e-13 -6.46448e-13 6.40993e-11 -3.23224e-13 -3.65764e-13 -7.73091 5.47488 -0.417314 6.41043e-11 -3.20441e-13 -3.68944e-13 -2.90554 0.965183 -0.102902 6.41027e-11 -3.20441e-13 -3.7292e-13 -10.2786 0.731801 -0.0259123 6.41124e-11 -3.16465e-13 -3.78486e-13 -2.22167 -0.733487 0.20892 -2.03217e-16 0.0 -3.88251e-19 -0.803419 -1.9234 -0.00371729 -0.0088187 -2.07862 -0.0725733 -0.452056 3.99778 0.131435 2.03217e-16 0.0 3.88251e-19 -1.71759 -6.77988 0.164469 -0.00322847 6.71845 -0.0840744 0.482114 0.0572856 -0.0558974
-196.231 83.319 82.8133 -18.1204 77.6319 -16.0281 0.626387 5.80316 -1.7926 -0.155722 0.279698 -0.395211 -0.138886 4.10406 1.33199 -2.10889 -8.86471 2.10291 -0.0 0.0 0.0 -0.0 0.0 0.0 -1.82579e-14 7.48742e-14 -1.24885e-14 18.5503 12.0502 -1.26728 -5.46392 -2.79366 8.16936 1.32765e-05 -0.0851878 -0.0119723 -3.84753e-10 7.76519e-11 5.68813e-10 -6.64008e-10 1.32341e-10 9.85684e-10 -3.84748e-10 7.76498e-11 5.68802e-10 7.73091 5.47488 0.417314 -3.84754e-10 7.76514e-11 5.68809e-10 2.90554 0.965183 0.102902 -3.84749e-10 7.76525e-11 5.68809e-10 10.2786 0.731801 0.0259123 -3.84762e-10 7.7656e-11 5.6882e-10 2.22167 -0.733487 -0.20892 -1.83822e-14 7.48701e-14 -1.27797e-14 -22.0327 6.61705 2.55867 6.75824 -3.82985 -9.60166 -0.0032724 -1.26923 0.178221 4.65118e-10 -1.09631e-10 -1.65697e-10 8.02998e-10 -1.89703e-10 -2.87381e-10 4.65113e-10 -1.09632e-10 -1.65689e-10 -7.73091 5.47488 -0.417314 4.65119e-10 -1.09632e-10 -1.65694e-10 -2.90554 0.965183 -0.102902 4.65115e-10 -1.09631e-10 -1.65697e-10 -10.2786 0.731801 -0.0259123 4.65125e-10 -1.09628e-10 -1.65703e-10 -2.22167 -0.733487 0.20892 -2.03217e-16 0.0 -3.88251e-19 1.31222 0.787018 -0.244198 0.00716285 -0.371898 0.0224531 -0.980752 -0.925311 -6.59872 2.03217e-16 0.0 3.88251e-19 -0.687576 -11.0918 -0.306786 0.00800607 13.925 -0.202198 0.793487 -2.72114 2.25715
-196.22 83.3262 82.8166 -18.179 77.6451 -16.1328 3.43145 11.9151 -3.69854 0.176961 0.607583 -0.728317 -0.503775 8.43025 2.762 -3.60239 -18.2164 4.4959 -0.0 0.0 0.0 -0.0 0.0 0.0 -5.11325e-14 1.77382e-13 -2.45313e-14 38.7714 24.7587 -2.77902 -10.3788 -5.55418 16.8612 -1.26882e-05 -0.178347 -0.0250651 -8.46831e-10 1.764e-10 1.231e-09 -1.46138e-09 3.00966e-10 2.13304e-09 -8.46824e-10 1.76399e-10 1.23098e-09 7.73091 5.47488 0.417314 -8.46831e-10 1.764e-10 1.23099e-09 2.90554 0.965183 0.102902 -8.46824e-10 1.76402e-10 1.23099e-09 10.2786 0.731801 0.0259123 -8.46838e-10 1.76404e-10 1.231e-09 2.22167 -0.733487 -0.20892 -5.11797e-14 1.77371e-13 -2.47611e-14 -45.9871 13.5621 5.34972 12.5219 -7.51688 -19.8822 0.00185863 -2.60795 0.366495 9.63975e-10 -2.34451e-10 -3.27489e-10 1.66412e-09 -4.05561e-10 -5.67931e-10 9.63967e-10 -2.3445e-10 -3.27478e-10 -7.73091 5.47488 -0.417314 9.63974e-10 -2.34451e-10 -3.27485e-10 -2.90554 0.965183 -0.102902 9.63969e-10 -2.34451e-10 -3.27488e-10 -10.2786 0.731801 -0.0259123 9.63978e-10 -2.34449e-10 -3.27494e-10 -2.22167 -0.733487 0.20892 -2.03217e-16 0.0 -3.88251e-19 3.57329 3.66072 -0.49799 0.0178381 1.41567 0.122444 -2.7869 -5.95183 -13.7959 2.03217e-16 0.0 3.88251e-19 0.322024 -15.6473 -0.823699 0.0546798 21.54 -0.339203 1.36808 -5.64692 4.72232
-196.22 83.319 82.8109 -18.1024 77.6549 -16.0673 6.2943 17.3494 -5.51116 0.456286 0.83867 -1.0274 -1.00001 12.2852 4.07928 -4.18547 -26.4422 6.96507 -0.0 0.0 0.0 -0.0 0.0 0.0 -6.82884e-14 2.24689e-13 -3.77636e-14 57.5703 36.0711 -4.60164 -14.0649 -7.70087 24.7164 -6.69748e-05 -0.255563 -0.0359173 -1.28249e-09 2.33543e-10 1.70718e-09 -2.21345e-09 3.98029e-10 2.95835e-09 -1.28248e-09 2.33543e-10 1.70716e-09 7.73091 5.47488 0.417314 -1.28249e-09 2.33542e-10 1.70718e-09 2.90554 0.965183 0.102902 -1.28248e-09 2.33545e-10 1.70717e-09 10.2786 0.731801 0.0259123 -1.2825e-09 2.33545e-10 1.70719e-09 2.22167 -0.733487 -0.20892 -6.82698e-14 2.24672e-13 -3.79415e-14 -67.9586 19.6878 8.10134 16.554 -10.2004 -29.2459 0.0139151 -3.80755 0.535714 1.26715e-09 -3.28254e-10 -4.96347e-10 2.18756e-09 -5.68002e-10 -8.60851e-10 1.26714e-09 -3.28251e-10 -4.96335e-10 -7.73091 5.47488 -0.417314 1.26715e-09 -3.28254e-10 -4.96343e-10 -2.90554 0.965183 -0.102902 1.26714e-09 -3.28253e-10 -4.96346e-10 -10.2786 0.731801 -0.0259123 1.26715e-09 -3.28252e-10 -4.96353e-10 -2.22167 -0.733487 0.20892 -2.03217e-16 0.0 -3.88251e-19 5.61207 6.20737 -0.72937 0.0221378 3.04153 0.212709 -5.4747 -10.1286 -20.3873 2.03217e-16 0.0 3.88251e-19 1.14767 -19.7113 -1.30636 0.131631 28.3374 -0.479198 2.09332 -8.22432 6.9474
-196.238 83.305 82.8289 -18.1232 77.6106 -16.0302 8.51305 21.1528 -6.88031 0.593994 0.827898 -1.2413 -1.41091 14.9876 5.03604 -4.06975 -31.9964 8.99973 -0.0 0.0 0.0 -0.0 0.0 0.0 -4.61476e-14 1.3399e-13 -5.397e-14 71.4667 43.9573 -6.52092 -16.2876 -8.95715 30.2822 -0.000105232 -0.292921 -0.0411678 -1.65211e-09 1.8667e-10 1.71836e-09 -2.85228e-09 3.16192e-10 2.97853e-09 -1.6521e-09 1.86671e-10 1.71834e-09 7.73091 5.47488 0.417314 -1.65211e-09 1.86669e-10 1.71836e-09 2.90554 0.965183 0.102902 -1.6521e-09 1.86673e-10 1.71835e-09 10.2786 0.731801 0.0259123 -1.65212e-09 1.86672e-10 1.71836e-09 2.22167 -0.733487 -0.20892 -4.60914e-14 1.33972e-13 -5.41191e-14 -83.6677 23.9109 10.3631 18.8247 -11.6016 -35.8976 0.026702 -4.65951 0.656313 1.08112e-09 -3.44514e-10 -6.82871e-10 1.86681e-09 -5.96901e-10 -1.1847e-09 1.08111e-09 -3.44511e-10 -6.82859e-10 -7.73091 5.47488 -0.417314 1.08111e-09 -3.44515e-10 -6.82868e-10 -2.90554 0.965183 -0.102902 1.08111e-09 -3.44514e-10 -6.82871e-10 -10.2786 0.731801 -0.0259123 1.08112e-09 -3.44513e-10 -6.82878e-10 -2.22167 -0.733487 0.20892 -2.03217e-16 0.0 -3.88251e-19 7.04694 7.93687 -0.900141 0.0220845 4.26311 0.278301 -7.96168 -12.8336 -25.094 2.03217e-16 0.0 3.88251e-19 1.67642 -22.5505 -1.65424 0.209228 33.0914 -0.59148 2.7135 -9.9825 8.51039
